<svg width="1024" height="1024" viewBox="0 0 1024 1024" fill="none" xmlns="http://www.w3.org/2000/svg">
<path d="M603.964 197.863C635.207 197.863 666.534 197.154 697.766 197.987C709.633 198.3 721.474 199.246 733.24 200.82L724.583 199.63C748.085 202.831 771.219 208.686 793.121 217.861L785.339 214.576C802.454 221.726 818.582 231.038 833.331 242.285L826.739 237.192C839.402 246.938 850.774 258.255 860.583 270.869L855.483 264.277C864.44 275.886 871.878 288.591 877.618 302.083L874.333 294.301C879.889 307.46 883.69 321.294 885.638 335.445C885.242 332.553 884.845 329.666 884.448 326.782C886.281 340.541 886.281 354.482 884.448 368.242C884.845 365.354 885.242 362.466 885.638 359.578C883.81 372.927 880.248 385.981 875.041 398.408L878.326 390.62C873.022 403.126 866.141 414.903 857.852 425.665L862.945 419.067C853.937 430.649 843.499 441.045 831.88 450.007L838.472 444.914C824.407 455.642 809.023 464.523 792.699 471.338L800.481 468.053C778.169 477.419 754.547 483.262 730.598 486.498L739.262 485.308C719.841 487.879 700.372 488.42 680.814 488.42H603.964C586.197 488.42 571.375 503.248 571.375 521.009C571.375 538.769 586.197 553.597 603.964 553.597C634.19 553.597 664.428 553.847 694.648 553.597C748.246 553.121 803.207 542.512 850.033 515.481C885.995 494.721 917.632 462.924 934.19 424.446C938.599 414.2 942.663 403.989 945.365 393.154C948.066 382.319 949.571 371.294 950.499 360.269C952.124 340.949 949.976 321.034 945.496 302.226C936.089 262.736 912.973 225.994 882.663 199.201C846.303 167.071 800.713 146.782 753.06 138.511C730.497 134.604 707.639 132.655 684.741 132.686H603.964C586.203 132.686 571.375 147.513 571.375 165.274C571.375 183.035 586.203 197.863 603.964 197.863Z" fill="white"/>
<path d="M407.339 489.218C344.061 489.429 282.251 508.296 229.641 543.458C176.887 579.027 134.472 627.91 106.696 685.152C80.4541 739.376 66.7904 798.825 66.7236 859.065C66.7236 876.826 81.5689 891.654 99.3179 891.654C117.067 891.654 131.906 876.826 131.906 859.065C131.92 842.334 133.041 825.621 135.262 809.038L134.102 817.701C138.393 786.132 146.827 755.267 159.187 725.904L155.903 733.686C167.384 706.585 182.274 681.057 200.213 657.722L195.113 664.321C211.92 642.566 231.417 623.029 253.138 606.177L246.539 611.276C266.899 595.576 289.175 582.532 312.829 572.458L305.052 575.743C328.411 565.905 352.963 559.187 378.077 555.763L369.414 556.953C381.991 555.289 394.664 554.446 407.351 554.43C425.112 554.43 439.939 539.626 439.939 521.842C439.939 504.057 425.112 489.223 407.345 489.247L407.339 489.218Z" fill="white"/>
<path d="M472.658 165.274V859.048C472.658 876.809 487.486 891.636 505.247 891.636C523.007 891.636 537.841 876.809 537.841 859.048V165.274C537.841 147.514 523.013 132.686 505.247 132.686C487.48 132.686 472.658 147.508 472.658 165.274Z" fill="white"/>
<path d="M66.6402 165.286C66.7235 233.92 82.7766 301.947 114.24 362.988C143.098 419.013 186.307 467.708 239.06 502.248C289.117 534.877 347.528 552.362 407.279 552.603C425.046 552.603 439.874 537.728 439.874 520.015C439.874 502.302 425.046 487.457 407.279 487.427C395.217 487.416 383.169 486.621 371.21 485.047L379.873 486.237C355.89 482.966 332.44 476.565 310.121 467.197L317.91 470.481C294.347 460.474 272.177 447.465 251.948 431.776L258.546 436.875C236.753 419.869 217.177 400.197 200.278 378.321L205.371 384.914C186.219 359.996 170.352 332.717 158.164 303.749L161.454 311.538C148.095 279.607 138.987 246.059 134.363 211.756L135.476 220.366C133.039 202.107 131.809 183.707 131.793 165.286C131.799 147.519 117.031 132.686 99.2285 132.686C81.426 132.686 66.6223 147.508 66.6402 165.274V165.286Z" fill="#F15A29"/>
<path d="M958.425 859.065C958.336 792.77 941.086 726.826 908.171 669.26C876.868 614.519 830.939 567.758 776.485 535.907C724.086 505.405 664.564 489.275 603.934 489.146C586.167 489.146 571.346 503.992 571.346 521.735C571.346 539.478 586.173 554.299 603.934 554.323C617.836 554.341 631.722 555.275 645.501 557.119L636.838 555.929C663.937 559.645 690.429 566.917 715.628 577.558L707.869 574.285C732.923 584.963 756.516 598.787 778.079 615.424L771.481 610.325C793.764 627.621 813.774 647.662 831.035 669.974L825.936 663.381C843.981 686.798 858.935 712.441 870.43 739.678L867.145 731.896C879.041 760.285 887.149 790.117 891.261 820.622C890.864 817.735 890.468 814.847 890.071 811.959C892.136 827.585 893.182 843.328 893.201 859.089C893.201 876.85 908.004 891.678 925.789 891.678C943.574 891.678 958.401 876.85 958.377 859.089L958.425 859.065Z" fill="#F15A29"/>
</svg>
